<svg id="Capa_1" data-name="Capa 1" xmlns="http://www.w3.org/2000/svg" viewBox="0 0 537.09 241.31"><defs><style>.cls-1,.cls-2{fill:#211915;}.cls-1,.cls-4,.cls-5{fill-rule:evenodd;}.cls-3,.cls-4,.cls-5{fill:#559e3f;}.cls-5{stroke:#559e3f;stroke-miterlimit:10;}</style></defs><path class="cls-1" d="M307.79,119.32l13.34-33.71,14.37,7,3.65-8.5a20.45,20.45,0,0,1-1.59-13.47c-15.48,0-28.81-10.37-41.8-22.44a93.89,93.89,0,0,1,31-21.32l-6.07-10-37.18.64-.07-9.12,42.11-.46L335.8,25c16.78.6,26,9.26,21.89,32,7.13.84,12.64,4.7,15.95,12.61,17.7-12.86,60.05-5.51,56.23,18.56-2,11.42-10.2,16.77-21.58,18.91-9,1.39-18.22,1.33-28-2.39-6.81-3.39-11.34-7.82-15.36-12.5-6.19,3-12.7,2.78-19.51-.68l-4.77,13.51L326,97.31l-9.78,26.85C314.79,122.16,312.18,120.61,307.79,119.32ZM414.9,95.44c9.6-5.43,9.39-14.24-.46-19.66s-25.65-5.41-35.25,0-9.39,14.25.46,19.67S405.3,100.88,414.9,95.44ZM365.69,74.19a10,10,0,1,0-8.5,11.32A10,10,0,0,0,365.69,74.19ZM350.08,47.67c-1.94-23-23.81-13.89-41.41.31C322.59,61.56,350.08,71.7,350.08,47.67Zm-13.23,3.52-9.13.13-.13-9.13,9.13-.13Z" transform="translate(-14.92 -7.92)"/><path class="cls-2" d="M89.08,64.9v6.94h6.65A8.32,8.32,0,0,1,93.07,76a6.88,6.88,0,0,1-4.33,1.31,7.18,7.18,0,0,1-3.93-1.07,7.65,7.65,0,0,1-2.89-3.64,18.1,18.1,0,0,1-1.12-6.82,15.62,15.62,0,0,1,1.1-6.12A8.22,8.22,0,0,1,84.78,56a7.08,7.08,0,0,1,4-1.2,6.68,6.68,0,0,1,4.37,1.32,6.81,6.81,0,0,1,2.22,4.08l.1.49h8.92l-.05-.49A13.43,13.43,0,0,0,103,55.49a11.74,11.74,0,0,0-3-3.79,13.9,13.9,0,0,0-4.7-2.53,21.12,21.12,0,0,0-6.43-.92,19.65,19.65,0,0,0-6.68,1.15,16.1,16.1,0,0,0-5.54,3.41,15.9,15.9,0,0,0-3.78,5.65,20.76,20.76,0,0,0-1.4,7.83,23.66,23.66,0,0,0,1.14,7.59,15.29,15.29,0,0,0,3.19,5.49,13.34,13.34,0,0,0,4.91,3.33A16.86,16.86,0,0,0,87,83.83a17.79,17.79,0,0,0,4.57-.48,8.35,8.35,0,0,0,3.31-1.7l1.49-3.77.84,5.26h6.94V64.9Z" transform="translate(-14.92 -7.92)"/><path class="cls-2" d="M137.06,74.81a15.58,15.58,0,0,0-.82-3.62,7.34,7.34,0,0,0-1.67-2.66,7.74,7.74,0,0,0-2.87-1.74,10,10,0,0,0,5.16-3.15,8.31,8.31,0,0,0,1.73-5.38,9.57,9.57,0,0,0-.75-3.89,7.38,7.38,0,0,0-2-2.69,9.75,9.75,0,0,0-3-1.67,15.54,15.54,0,0,0-3.53-.82c-.61-.06-1.18-.12-1.73-.15s-1.12-.06-1.7-.08l-1.93,0H110.4v34.2h8.91v-13h3.4l1.41,0a3.62,3.62,0,0,1,2.8,1.7,9.83,9.83,0,0,1,1.41,4.4,31.11,31.11,0,0,0,.61,3.42c.26,1.08.59,2.22,1,3.42h9.71a13.48,13.48,0,0,1-1.16-2.2,17.2,17.2,0,0,1-.84-2.7A27.82,27.82,0,0,1,137.06,74.81ZM119.31,63.72V55.88h3.47c.47,0,.91,0,1.3,0s.76,0,1.08,0a6.68,6.68,0,0,1,2.08.45,3.13,3.13,0,0,1,1.48,1.18,4.09,4.09,0,0,1,.56,2.24,3.79,3.79,0,0,1-.63,2.24,3.44,3.44,0,0,1-1.59,1.18,8,8,0,0,1-2.15.45c-.32,0-.68,0-1.07,0h-4.53Z" transform="translate(-14.92 -7.92)"/><path class="cls-2" d="M173.94,48.94H165V69.75c0,.46,0,.84,0,1.15s0,.6,0,.88a5.8,5.8,0,0,1-1.73,4.09,7.79,7.79,0,0,1-8.94,0,5.84,5.84,0,0,1-1.73-4.09c0-.28,0-.58,0-.88s0-.69,0-1.15V48.94h-8.92V69.68c0,.48,0,1,0,1.48s.06,1.1.11,1.76a11.47,11.47,0,0,0,1,4.13,9.94,9.94,0,0,0,2.66,3.48,12.73,12.73,0,0,0,4.58,2.4,25.69,25.69,0,0,0,13.48,0,12.73,12.73,0,0,0,4.58-2.4,10.09,10.09,0,0,0,2.67-3.48,11.9,11.9,0,0,0,1-4.13c0-.66.08-1.25.1-1.76s0-1,0-1.48,0-1,0-1.56Z" transform="translate(-14.92 -7.92)"/><path class="cls-2" d="M198,49.19c-.61-.06-1.18-.12-1.73-.15s-1.12-.06-1.7-.08l-1.93,0H179.79v34.2h8.92v-12h4l1.93,0c.58,0,1.15,0,1.7-.08s1.12-.09,1.73-.15a11.86,11.86,0,0,0,3.57-1,10.19,10.19,0,0,0,3-2.12,9.76,9.76,0,0,0,2.09-3.28,13.11,13.11,0,0,0,0-8.91,9.76,9.76,0,0,0-2.09-3.28,10.19,10.19,0,0,0-3-2.12A11.86,11.86,0,0,0,198,49.19Zm-3.47,15c-.32,0-.68,0-1.08,0s-.83,0-1.3,0h-3.47V55.88h3.47c.47,0,.9,0,1.3,0s.76,0,1.08,0a3.88,3.88,0,0,1,2.66,1.16,5,5,0,0,1,0,5.91A3.88,3.88,0,0,1,194.56,64.16Z" transform="translate(-14.92 -7.92)"/><path class="cls-2" d="M227.92,48.25a19.24,19.24,0,0,0-9.27,2.17,14.89,14.89,0,0,0-6.06,6.12,20.1,20.1,0,0,0-2.17,9.5,20.07,20.07,0,0,0,2.17,9.48,15,15,0,0,0,6.06,6.13,20.8,20.8,0,0,0,18.54,0,14.85,14.85,0,0,0,6.06-6.13A20,20,0,0,0,245.42,66a20,20,0,0,0-2.17-9.5,14.77,14.77,0,0,0-6.06-6.12A19.24,19.24,0,0,0,227.92,48.25Zm0,29a7.69,7.69,0,0,1-4.46-1.3,8.29,8.29,0,0,1-2.89-3.81,16.47,16.47,0,0,1-1-6.13,16.55,16.55,0,0,1,1-6.15,8.21,8.21,0,0,1,2.89-3.8,8.37,8.37,0,0,1,8.93,0,8.19,8.19,0,0,1,2.88,3.8,16.53,16.53,0,0,1,1,6.15,16.46,16.46,0,0,1-1,6.13A8.27,8.27,0,0,1,232.39,76,7.7,7.7,0,0,1,227.92,77.28Z" transform="translate(-14.92 -7.92)"/><path class="cls-3" d="M96.15,174.45l8.06,24.87h27.25l-34.62-95.9H66.26l-34.62,95.9H58.19l8.07-24.87ZM81.27,125.51,90.17,155H72.38Z" transform="translate(-14.92 -7.92)"/><path class="cls-3" d="M161.36,97.14h-25v75.92q0,4.11,0,7.23t.24,6q.45,7.38,5.19,10.92t13.43,3.53c2.75,0,5.31-.07,7.66-.2s4.67-.29,6.93-.5v-17a23.89,23.89,0,0,1-4.93-.16,4,4,0,0,1-2.41-1.16,4.29,4.29,0,0,1-.86-2.29,23.41,23.41,0,0,1-.24-2.79c0-1,0-2.34,0-4Z" transform="translate(-14.92 -7.92)"/><path class="cls-3" d="M207.53,119.54a8,8,0,0,1,2.52-5.22,11,11,0,0,1,5.67-2.57,24.6,24.6,0,0,1,8.08.15V95.61a30.08,30.08,0,0,0-4-.81,31,31,0,0,0-4.33-.3q-11.4,0-18.48,2.75T186.46,105a23.79,23.79,0,0,0-3.94,12q-.11,1.93-.12,4.14c0,1.46,0,2.77,0,3.92v.56h-7.93v15.57h7.93v58.1h25v-58.1h15.15V125.65H207.39v-.56c0-.9,0-1.81,0-2.72s.05-1.87.12-2.84Z" transform="translate(-14.92 -7.92)"/><path class="cls-3" d="M275.39,199.32h24.46c-.37-2.7-.65-5.13-.86-7.26s-.34-4.13-.42-6-.12-3.68-.11-5.51V159.69q0-3.45-.11-6.63t-.31-6a26.64,26.64,0,0,0-3.74-12.17A22,22,0,0,0,284,126.38q-7-3.13-18.66-3.21A47.21,47.21,0,0,0,252.12,125a34.07,34.07,0,0,0-10.89,5.29,24.56,24.56,0,0,0-10.18,20.11l23.62-.14a11.8,11.8,0,0,1,2.77-7.45,9,9,0,0,1,6.83-2.67,10.3,10.3,0,0,1,4.62,1,7.72,7.72,0,0,1,3,2.58,7.64,7.64,0,0,1,1.29,3.49c.13,1.16.21,2.17.24,3s0,1.64,0,2.39v1.11h-4.73q-12.63,0-21.6,3.11t-13.75,8.79a20.86,20.86,0,0,0-4.83,13.67,22.29,22.29,0,0,0,2,9.48,20.07,20.07,0,0,0,5.3,6.88,23.41,23.41,0,0,0,7.6,4.19,28,28,0,0,0,8.88,1.42,37.43,37.43,0,0,0,9.75-1.25,31.66,31.66,0,0,0,8.6-3.76l3.05-7.76Zm-12.79-15a9.76,9.76,0,0,1-6.11-1.81,6.3,6.3,0,0,1-2.36-5.16,7.76,7.76,0,0,1,2.5-5.92,14,14,0,0,1,6.8-3.1,36.94,36.94,0,0,1,10-.44v4.87a12.16,12.16,0,0,1-1.7,6.46,10.52,10.52,0,0,1-4.11,3.83A10.89,10.89,0,0,1,262.6,184.33Z" transform="translate(-14.92 -7.92)"/><path class="cls-3" d="M348.36,123.17a43.92,43.92,0,0,0-15.31,2.64,35.64,35.64,0,0,0-12.41,7.72A35.16,35.16,0,0,0,312.33,146a45.83,45.83,0,0,0-3,17,44.44,44.44,0,0,0,2.86,16.28,33,33,0,0,0,19.72,19.39,42.31,42.31,0,0,0,14.82,2.53,47.28,47.28,0,0,0,18.15-3.3,31.69,31.69,0,0,0,13.1-9.79,33.51,33.51,0,0,0,6.56-16.09H359.9q-1.12,6.06-4.29,9.14a10.52,10.52,0,0,1-7.53,3.09,10.69,10.69,0,0,1-9.78-5.46q-3.39-5.51-3.42-17.32,0-10.72,3.33-16.06a10.63,10.63,0,0,1,9.59-5.33,11,11,0,0,1,8.05,3q3.27,3.1,4.19,10.32h24.19a30.89,30.89,0,0,0-2.83-11.77,29.77,29.77,0,0,0-7.18-9.63,33.53,33.53,0,0,0-11.15-6.51A44,44,0,0,0,348.36,123.17Z" transform="translate(-14.92 -7.92)"/><path class="cls-3" d="M438.59,199.32H463c-.36-2.7-.65-5.13-.85-7.26s-.35-4.13-.42-6-.12-3.68-.12-5.51V159.69q0-3.45-.1-6.63c-.07-2.12-.18-4.12-.31-6a26.65,26.65,0,0,0-3.75-12.17,22,22,0,0,0-10.25-8.51q-7-3.13-18.66-3.21A47.23,47.23,0,0,0,415.31,125a34.12,34.12,0,0,0-10.88,5.29,24.49,24.49,0,0,0-10.18,20.11l23.62-.14a11.79,11.79,0,0,1,2.76-7.45,9,9,0,0,1,6.83-2.67,10.38,10.38,0,0,1,4.63,1,7.7,7.7,0,0,1,4.27,6.07c.14,1.16.22,2.17.25,3s0,1.64,0,2.39v1.11h-4.73q-12.62,0-21.59,3.11t-13.76,8.79a20.85,20.85,0,0,0-4.82,13.67,22.29,22.29,0,0,0,2,9.48,20.09,20.09,0,0,0,5.31,6.88,23.31,23.31,0,0,0,7.6,4.19,28,28,0,0,0,8.87,1.42,37.32,37.32,0,0,0,9.75-1.25,31.66,31.66,0,0,0,8.6-3.76l3.06-7.76Zm-12.79-15a9.81,9.81,0,0,1-6.12-1.81,6.33,6.33,0,0,1-2.36-5.16,7.76,7.76,0,0,1,2.51-5.92,14,14,0,0,1,6.8-3.1,36.87,36.87,0,0,1,10-.44v4.87a12.16,12.16,0,0,1-1.7,6.46,10.52,10.52,0,0,1-4.11,3.83A10.82,10.82,0,0,1,425.8,184.33Z" transform="translate(-14.92 -7.92)"/><path class="cls-3" d="M551.31,143.3q-1.48-9.72-8.13-14.9t-18.13-5.23a35.53,35.53,0,0,0-9.19,1.12,28.47,28.47,0,0,0-7.51,3.19l-6.68,9.15V125.11h-25v74.21h25v-35a47.92,47.92,0,0,1,1.69-13.75q1.67-5.35,4.6-7.91a10,10,0,0,1,6.79-2.53q5.63,0,8.59,3c2,2,3.1,4.72,3.38,8.29.13,1.92.21,3.78.24,5.6s0,3.33,0,4.55v37.81h25v-42c0-3,0-5.58-.14-7.86A61.84,61.84,0,0,0,551.31,143.3Z" transform="translate(-14.92 -7.92)"/><polygon class="cls-1" points="11.96 204.97 0 241.31 536.97 204.97 11.96 204.97"/><path class="cls-4" d="M413.35,123.12,398.91,51.25l-19.1,70.49c-2.38-1.33-8.86-4.12-9.81-4l22.89-77.54A42.34,42.34,0,0,1,404.52,40L422.37,119C419.64,120.18,416.53,121.43,413.35,123.12Z" transform="translate(-14.92 -7.92)"/><path class="cls-5" d="M392.16,71.92l2.42-8.75,7.37.26,1.87,8.84Z" transform="translate(-14.92 -7.92)"/></svg>